<svg width="42" height="42" viewBox="0 0 42 42" fill="none" xmlns="http://www.w3.org/2000/svg">
<path d="M10.5238 19.6878C11.0674 19.6878 11.508 19.2472 11.508 18.7036C11.508 18.1601 11.0674 17.7194 10.5238 17.7194C9.98023 17.7194 9.53958 18.1601 9.53958 18.7036C9.53958 19.2472 9.98023 19.6878 10.5238 19.6878Z" fill="black"/>
<path d="M31.4768 19.6878C32.0204 19.6878 32.461 19.2472 32.461 18.7036C32.461 18.1601 32.0204 17.7194 31.4768 17.7194C30.9332 17.7194 30.4926 18.1601 30.4926 18.7036C30.4926 19.2472 30.9332 19.6878 31.4768 19.6878Z" fill="black"/>
<path d="M30.9652 26.1739C29.5911 26.1739 28.4732 27.2917 28.4732 28.6657V33.2322C28.4732 34.6062 29.5911 35.7241 30.9652 35.7241C32.3392 35.7241 33.457 34.6063 33.457 33.2322V28.6658C33.457 27.2917 32.3392 26.1739 30.9652 26.1739ZM32.1063 33.2323C32.1063 33.8615 31.5944 34.3735 30.9652 34.3735C30.3359 34.3735 29.8239 33.8614 29.8239 33.2323V28.6658C29.8239 28.0366 30.336 27.5247 30.9652 27.5247C31.5943 27.5247 32.1063 28.0366 32.1063 28.6658V33.2323Z" fill="black"/>
<path d="M24.3216 26.1739C22.9476 26.1739 21.8297 27.2917 21.8297 28.6657V33.2322C21.8297 34.6062 22.9476 35.7241 24.3216 35.7241C25.6956 35.7241 26.8135 34.6063 26.8135 33.2322V28.6658C26.8136 27.2917 25.6956 26.1739 24.3216 26.1739ZM25.4628 33.2323C25.4628 33.8615 24.9509 34.3735 24.3217 34.3735C23.6924 34.3735 23.1806 33.8614 23.1806 33.2323V28.6658C23.1806 28.0366 23.6925 27.5247 24.3217 27.5247C24.951 27.5247 25.4628 28.0366 25.4628 28.6658V33.2323Z" fill="black"/>
<path d="M17.6782 26.1739C16.3042 26.1739 15.1864 27.2917 15.1864 28.6657V33.2322C15.1864 34.6062 16.3042 35.7241 17.6782 35.7241C19.0522 35.7241 20.1701 34.6063 20.1701 33.2322V28.6658C20.1701 27.2917 19.0522 26.1739 17.6782 26.1739ZM18.8195 33.2323C18.8195 33.8615 18.3076 34.3735 17.6784 34.3735C17.0492 34.3735 16.5373 33.8614 16.5373 33.2323V28.6658C16.5373 28.0366 17.0491 27.5247 17.6784 27.5247C18.3077 27.5247 18.8195 28.0366 18.8195 28.6658V33.2323Z" fill="black"/>
<path d="M11.0348 26.1739C9.66082 26.1739 8.54298 27.2917 8.54298 28.6657V33.2322C8.54298 34.6062 9.66082 35.7241 11.0348 35.7241C12.4089 35.7241 13.5268 34.6063 13.5268 33.2322V28.6658C13.5269 27.2917 12.4089 26.1739 11.0348 26.1739ZM12.1761 33.2323C12.1761 33.8615 11.6641 34.3735 11.0349 34.3735C10.4057 34.3735 9.89379 33.8614 9.89379 33.2323V28.6658C9.89379 28.0366 10.4057 27.5247 11.0349 27.5247C11.6642 27.5247 12.1761 28.0366 12.1761 28.6658V33.2323Z" fill="black"/>
<path d="M38.2584 17.2531H34.5388C34.5388 17.2531 30.05 5.31209 30.0475 5.30545C29.4027 3.59026 27.4112 2.68898 25.6985 3.33284C23.9557 3.98803 23.0706 5.93898 23.7258 7.68181L27.3237 17.253H19.4855C19.1125 17.253 18.8101 17.5553 18.8101 17.9283C18.8101 18.3013 19.1125 18.6037 19.4855 18.6037H27.8315C27.8315 18.6037 28.3589 20.0069 28.3591 20.0071C28.8455 21.3009 30.1387 22.1963 31.5205 22.1963C32.0718 22.1963 32.6263 22.0552 33.1124 21.7956C34.289 21.1672 34.972 19.9044 34.8897 18.6037H38.2583C39.5767 18.6037 40.6493 19.6763 40.6493 20.9946C40.6493 22.3129 39.5767 23.3855 38.2583 23.3855H3.74161C2.4232 23.3854 1.35073 22.3128 1.35073 20.9946C1.35073 19.6763 2.42329 18.6037 3.74161 18.6037H7.11022C7.02795 19.9041 7.71077 21.1668 8.88702 21.7953C10.2295 22.5127 11.9697 22.2131 12.9884 21.0783C13.3588 20.6656 13.5751 20.1823 13.7678 19.6696L14.1685 18.6036H16.7843C17.1572 18.6036 17.4596 18.3012 17.4596 17.9283C17.4596 17.5553 17.1572 17.2529 16.7843 17.2529H14.6763L18.2741 7.68189C18.9293 5.93906 18.0444 3.98811 16.3014 3.33293C14.578 2.68504 12.598 3.58788 11.9524 5.30553L10.8568 8.22026C10.7255 8.56939 10.9021 8.95879 11.2512 9.09012C11.6002 9.22129 11.9898 9.04476 12.1211 8.69564C12.1211 8.69564 13.2156 5.78426 13.2168 5.7809C13.6054 4.74723 14.791 4.2082 15.826 4.59727C16.8602 4.98594 17.3991 6.17088 17.0097 7.20677L12.3764 19.532C12.3518 19.5974 12.3242 19.6608 12.2938 19.7219C11.8374 20.6405 10.7474 21.084 9.76697 20.7156C9.73498 20.7035 9.70356 20.6908 9.67263 20.6773C8.71295 20.2597 8.21904 19.1491 8.56792 18.1515C8.56833 18.1502 8.56857 18.1488 8.56898 18.1476C8.57382 18.1338 8.57817 18.12 8.58342 18.1062L11.0773 11.4721C11.2085 11.123 11.0319 10.7336 10.6828 10.6023C10.3336 10.4711 9.94424 10.6476 9.81291 10.9968L7.46107 17.2531H3.74161C1.67844 17.2531 0 18.9316 0 20.9947C0 23.0486 1.66359 24.7206 3.71396 24.7355L5.87163 35.0436C6.33667 37.2651 8.32141 38.8773 10.591 38.8773H31.4088C33.6783 38.8773 35.6632 37.2649 36.1281 35.0436L37.0538 30.6214C37.1302 30.2564 36.8962 29.8984 36.5311 29.8221C36.1663 29.7456 35.8082 29.9797 35.7318 30.3447L34.8062 34.7669C34.4715 36.366 33.0427 37.5267 31.4089 37.5267H10.5911C8.95724 37.5267 7.5285 36.3659 7.19365 34.7669L5.09414 24.7362H36.9059L36.2903 27.6772C36.2138 28.0422 36.4479 28.4001 36.8129 28.4765C37.178 28.5529 37.5359 28.319 37.6122 27.9539L38.2859 24.7355C40.3364 24.7205 42 23.0485 42 20.9946C42 18.9316 40.3216 17.2531 38.2584 17.2531ZM32.3272 20.6772C31.7921 20.9088 31.1562 20.8955 30.6325 20.6386C30.6308 20.6377 30.629 20.6368 30.6273 20.636C30.2231 20.4364 29.8886 20.1045 29.6901 19.6874C29.6863 19.6794 29.6825 19.6713 29.6788 19.6631C29.6591 19.6203 29.6404 19.5768 29.6235 19.5319L29.0905 18.1137L24.9902 7.2066C24.597 6.16087 25.1281 4.99037 26.1737 4.59711C27.2049 4.20951 28.3949 4.74805 28.7831 5.78074L33.4164 18.106C33.4216 18.1197 33.4258 18.1336 33.4308 18.1474C33.4312 18.1487 33.4315 18.1501 33.4319 18.1513C33.7808 19.1491 33.2869 20.2597 32.3272 20.6772Z" fill="black"/>
</svg>
