<svg width="207" height="81" viewBox="0 0 207 81" fill="none" xmlns="http://www.w3.org/2000/svg">
<path d="M69.1136 48V30.5455H75.0114C76.3807 30.5455 77.5 30.7926 78.3693 31.2869C79.2443 31.7756 79.892 32.4375 80.3125 33.2727C80.733 34.108 80.9432 35.0398 80.9432 36.0682C80.9432 37.0966 80.733 38.0312 80.3125 38.8722C79.8977 39.7131 79.2557 40.3835 78.3864 40.8835C77.517 41.3778 76.4034 41.625 75.0455 41.625H70.8182V39.75H74.9773C75.9148 39.75 76.6676 39.5881 77.2358 39.2642C77.804 38.9403 78.2159 38.5028 78.4716 37.9517C78.733 37.3949 78.8636 36.767 78.8636 36.0682C78.8636 35.3693 78.733 34.7443 78.4716 34.1932C78.2159 33.642 77.8011 33.2102 77.2273 32.8977C76.6534 32.5795 75.892 32.4205 74.9432 32.4205H71.2273V48H69.1136ZM86.0866 40.125V48H84.0753V30.5455H86.0866V36.9545H86.2571C86.5639 36.2784 87.0241 35.7415 87.6378 35.3438C88.2571 34.9403 89.081 34.7386 90.1094 34.7386C91.0014 34.7386 91.7827 34.9176 92.4531 35.2756C93.1236 35.6278 93.6435 36.1705 94.0128 36.9034C94.3878 37.6307 94.5753 38.5568 94.5753 39.6818V48H92.5639V39.8182C92.5639 38.7784 92.294 37.9744 91.7543 37.4062C91.2202 36.8324 90.4787 36.5455 89.5298 36.5455C88.8707 36.5455 88.2798 36.6847 87.7571 36.9631C87.2401 37.2415 86.831 37.6477 86.5298 38.1818C86.2344 38.7159 86.0866 39.3636 86.0866 40.125ZM103.573 48.2727C102.391 48.2727 101.354 47.9915 100.462 47.429C99.576 46.8665 98.8828 46.0795 98.3828 45.0682C97.8885 44.0568 97.6413 42.875 97.6413 41.5227C97.6413 40.1591 97.8885 38.9687 98.3828 37.9517C98.8828 36.9347 99.576 36.1449 100.462 35.5824C101.354 35.0199 102.391 34.7386 103.573 34.7386C104.755 34.7386 105.789 35.0199 106.675 35.5824C107.567 36.1449 108.261 36.9347 108.755 37.9517C109.255 38.9687 109.505 40.1591 109.505 41.5227C109.505 42.875 109.255 44.0568 108.755 45.0682C108.261 46.0795 107.567 46.8665 106.675 47.429C105.789 47.9915 104.755 48.2727 103.573 48.2727ZM103.573 46.4659C104.471 46.4659 105.21 46.2358 105.789 45.7756C106.369 45.3153 106.798 44.7102 107.076 43.9602C107.354 43.2102 107.494 42.3977 107.494 41.5227C107.494 40.6477 107.354 39.8324 107.076 39.0767C106.798 38.321 106.369 37.7102 105.789 37.2443C105.21 36.7784 104.471 36.5455 103.573 36.5455C102.675 36.5455 101.937 36.7784 101.357 37.2443C100.778 37.7102 100.349 38.321 100.07 39.0767C99.7919 39.8324 99.6527 40.6477 99.6527 41.5227C99.6527 42.3977 99.7919 43.2102 100.07 43.9602C100.349 44.7102 100.778 45.3153 101.357 45.7756C101.937 46.2358 102.675 46.4659 103.573 46.4659ZM114.587 40.125V48H112.575V34.9091H114.518V36.9545H114.689C114.996 36.2898 115.462 35.7557 116.087 35.3523C116.712 34.9432 117.518 34.7386 118.507 34.7386C119.393 34.7386 120.169 34.9205 120.834 35.2841C121.499 35.642 122.016 36.1875 122.385 36.9205C122.754 37.6477 122.939 38.5682 122.939 39.6818V48H120.928V39.8182C120.928 38.7898 120.661 37.9886 120.126 37.4148C119.592 36.8352 118.859 36.5455 117.928 36.5455C117.286 36.5455 116.712 36.6847 116.206 36.9631C115.706 37.2415 115.311 37.6477 115.021 38.1818C114.732 38.7159 114.587 39.3636 114.587 40.125ZM132.103 48.2727C130.842 48.2727 129.754 47.9943 128.839 47.4375C127.93 46.875 127.228 46.0909 126.734 45.0852C126.245 44.0739 126.001 42.8977 126.001 41.5568C126.001 40.2159 126.245 39.0341 126.734 38.0114C127.228 36.983 127.915 36.1818 128.796 35.608C129.683 35.0284 130.717 34.7386 131.898 34.7386C132.58 34.7386 133.254 34.8523 133.918 35.0795C134.583 35.3068 135.188 35.6761 135.734 36.1875C136.279 36.6932 136.714 37.3636 137.038 38.1989C137.362 39.0341 137.523 40.0625 137.523 41.2841V42.1364H127.433V40.3977H135.478C135.478 39.6591 135.33 39 135.035 38.4205C134.745 37.8409 134.33 37.3835 133.79 37.0483C133.256 36.7131 132.626 36.5455 131.898 36.5455C131.097 36.5455 130.404 36.7443 129.819 37.142C129.239 37.5341 128.793 38.0455 128.481 38.6761C128.168 39.3068 128.012 39.983 128.012 40.7045V41.8636C128.012 42.8523 128.183 43.6903 128.523 44.3778C128.87 45.0597 129.35 45.5795 129.964 45.9375C130.577 46.2898 131.29 46.4659 132.103 46.4659C132.631 46.4659 133.109 46.392 133.535 46.2443C133.967 46.0909 134.339 45.8636 134.651 45.5625C134.964 45.2557 135.205 44.875 135.376 44.4205L137.319 44.9659C137.114 45.625 136.771 46.2045 136.288 46.7045C135.805 47.1989 135.208 47.5852 134.498 47.8636C133.788 48.1364 132.989 48.2727 132.103 48.2727ZM150.401 34.9091C150.299 34.0455 149.884 33.375 149.157 32.8977C148.43 32.4205 147.538 32.1818 146.481 32.1818C145.708 32.1818 145.032 32.3068 144.452 32.5568C143.879 32.8068 143.43 33.1506 143.106 33.5881C142.788 34.0256 142.629 34.5227 142.629 35.0795C142.629 35.5455 142.739 35.946 142.961 36.2812C143.188 36.6108 143.478 36.8864 143.83 37.108C144.183 37.3239 144.552 37.5028 144.938 37.6449C145.325 37.7812 145.68 37.892 146.004 37.9773L147.776 38.4545C148.231 38.5739 148.737 38.7386 149.293 38.9489C149.856 39.1591 150.393 39.446 150.904 39.8097C151.421 40.1676 151.847 40.6278 152.183 41.1903C152.518 41.7528 152.685 42.4432 152.685 43.2614C152.685 44.2045 152.438 45.0568 151.944 45.8182C151.455 46.5795 150.739 47.1847 149.796 47.6335C148.859 48.0824 147.719 48.3068 146.379 48.3068C145.129 48.3068 144.046 48.1051 143.131 47.7017C142.222 47.2983 141.506 46.7358 140.984 46.0142C140.467 45.2926 140.174 44.4545 140.106 43.5H142.288C142.344 44.1591 142.566 44.7045 142.952 45.1364C143.344 45.5625 143.839 45.8807 144.435 46.0909C145.038 46.2955 145.685 46.3977 146.379 46.3977C147.185 46.3977 147.91 46.267 148.552 46.0057C149.194 45.7386 149.702 45.3693 150.077 44.8977C150.452 44.4205 150.64 43.8636 150.64 43.2273C150.64 42.6477 150.478 42.1761 150.154 41.8125C149.83 41.4489 149.404 41.1534 148.876 40.9261C148.347 40.6989 147.776 40.5 147.163 40.3295L145.015 39.7159C143.651 39.3239 142.572 38.7642 141.776 38.0369C140.981 37.3097 140.583 36.358 140.583 35.1818C140.583 34.2045 140.847 33.3523 141.376 32.625C141.91 31.892 142.626 31.3239 143.523 30.9205C144.427 30.5114 145.435 30.3068 146.549 30.3068C147.674 30.3068 148.674 30.5085 149.549 30.9119C150.424 31.3097 151.117 31.8551 151.629 32.5483C152.146 33.2415 152.418 34.0284 152.447 34.9091H150.401ZM161.581 34.9091V36.6136H154.797V34.9091H161.581ZM156.774 31.7727H158.786V44.25C158.786 44.8182 158.868 45.2443 159.033 45.5284C159.203 45.8068 159.419 45.9943 159.68 46.0909C159.947 46.1818 160.229 46.2273 160.524 46.2273C160.746 46.2273 160.928 46.2159 161.07 46.1932C161.212 46.1648 161.325 46.142 161.411 46.125L161.82 47.9318C161.683 47.983 161.493 48.0341 161.249 48.0852C161.004 48.142 160.695 48.1705 160.32 48.1705C159.751 48.1705 159.195 48.0483 158.649 47.804C158.109 47.5597 157.661 47.1875 157.303 46.6875C156.95 46.1875 156.774 45.5568 156.774 44.7955V31.7727ZM169.784 48.2727C168.602 48.2727 167.565 47.9915 166.673 47.429C165.787 46.8665 165.094 46.0795 164.594 45.0682C164.099 44.0568 163.852 42.875 163.852 41.5227C163.852 40.1591 164.099 38.9687 164.594 37.9517C165.094 36.9347 165.787 36.1449 166.673 35.5824C167.565 35.0199 168.602 34.7386 169.784 34.7386C170.966 34.7386 172 35.0199 172.886 35.5824C173.778 36.1449 174.472 36.9347 174.966 37.9517C175.466 38.9687 175.716 40.1591 175.716 41.5227C175.716 42.875 175.466 44.0568 174.966 45.0682C174.472 46.0795 173.778 46.8665 172.886 47.429C172 47.9915 170.966 48.2727 169.784 48.2727ZM169.784 46.4659C170.682 46.4659 171.42 46.2358 172 45.7756C172.58 45.3153 173.009 44.7102 173.287 43.9602C173.565 43.2102 173.705 42.3977 173.705 41.5227C173.705 40.6477 173.565 39.8324 173.287 39.0767C173.009 38.321 172.58 37.7102 172 37.2443C171.42 36.7784 170.682 36.5455 169.784 36.5455C168.886 36.5455 168.148 36.7784 167.568 37.2443C166.989 37.7102 166.56 38.321 166.281 39.0767C166.003 39.8324 165.864 40.6477 165.864 41.5227C165.864 42.3977 166.003 43.2102 166.281 43.9602C166.56 44.7102 166.989 45.3153 167.568 45.7756C168.148 46.2358 168.886 46.4659 169.784 46.4659ZM178.786 48V34.9091H180.729V36.8864H180.866C181.104 36.2386 181.536 35.7131 182.161 35.3097C182.786 34.9062 183.491 34.7045 184.275 34.7045C184.423 34.7045 184.607 34.7074 184.829 34.7131C185.05 34.7187 185.218 34.7273 185.332 34.7386V36.7841C185.263 36.767 185.107 36.7415 184.863 36.7074C184.624 36.6676 184.371 36.6477 184.104 36.6477C183.468 36.6477 182.9 36.7812 182.4 37.0483C181.906 37.3097 181.513 37.6733 181.224 38.1392C180.94 38.5994 180.798 39.125 180.798 39.7159V48H178.786ZM192.806 48.2727C191.545 48.2727 190.457 47.9943 189.542 47.4375C188.633 46.875 187.931 46.0909 187.437 45.0852C186.948 44.0739 186.704 42.8977 186.704 41.5568C186.704 40.2159 186.948 39.0341 187.437 38.0114C187.931 36.983 188.619 36.1818 189.499 35.608C190.386 35.0284 191.42 34.7386 192.602 34.7386C193.283 34.7386 193.957 34.8523 194.621 35.0795C195.286 35.3068 195.891 35.6761 196.437 36.1875C196.982 36.6932 197.417 37.3636 197.741 38.1989C198.065 39.0341 198.227 40.0625 198.227 41.2841V42.1364H188.136V40.3977H196.181C196.181 39.6591 196.033 39 195.738 38.4205C195.448 37.8409 195.033 37.3835 194.494 37.0483C193.96 36.7131 193.329 36.5455 192.602 36.5455C191.8 36.5455 191.107 36.7443 190.522 37.142C189.942 37.5341 189.496 38.0455 189.184 38.6761C188.871 39.3068 188.715 39.983 188.715 40.7045V41.8636C188.715 42.8523 188.886 43.6903 189.227 44.3778C189.573 45.0597 190.053 45.5795 190.667 45.9375C191.281 46.2898 191.994 46.4659 192.806 46.4659C193.335 46.4659 193.812 46.392 194.238 46.2443C194.67 46.0909 195.042 45.8636 195.354 45.5625C195.667 45.2557 195.908 44.875 196.079 44.4205L198.022 44.9659C197.817 45.625 197.474 46.2045 196.991 46.7045C196.508 47.1989 195.911 47.5852 195.201 47.8636C194.491 48.1364 193.692 48.2727 192.806 48.2727ZM203.945 30.5455L203.775 43.0909H201.798L201.627 30.5455H203.945ZM202.786 48.1364C202.366 48.1364 202.005 47.9858 201.704 47.6847C201.403 47.3835 201.252 47.0227 201.252 46.6023C201.252 46.1818 201.403 45.821 201.704 45.5199C202.005 45.2187 202.366 45.0682 202.786 45.0682C203.207 45.0682 203.567 45.2187 203.869 45.5199C204.17 45.821 204.32 46.1818 204.32 46.6023C204.32 46.8807 204.249 47.1364 204.107 47.3693C203.971 47.6023 203.786 47.7898 203.553 47.9318C203.326 48.0682 203.07 48.1364 202.786 48.1364Z" fill="white"/>
<g clip-path="url(#clip0_31_25)">
<path d="M49.5056 4.46656L23.0434 9.13256C19.7687 9.70997 17.563 12.7806 18.1267 15.9774L19.3826 23.0998C19.3573 23.1026 19.3322 23.1049 19.3068 23.1094C18.684 23.2192 18.266 23.8011 18.3732 24.409L19.2014 29.1059C19.3086 29.7138 19.9004 30.1177 20.5232 30.0079C20.5486 30.0034 20.573 29.9969 20.5977 29.9909L21.0389 32.4935C21.0137 32.4963 20.9885 32.4986 20.9631 32.5031C20.3404 32.6129 19.9224 33.1948 20.0296 33.8027L20.8578 38.4996C20.965 39.1075 21.5568 39.5114 22.1795 39.4016C22.2049 39.3971 22.2294 39.3907 22.254 39.3846L28.0649 72.3397C28.6286 75.5365 31.7515 77.6676 35.0261 77.0901L61.4883 72.4241C64.763 71.8467 66.9687 68.7761 66.405 65.5793L56.4668 9.21704C55.9031 6.02024 52.7803 3.88914 49.5056 4.46656ZM64.1497 65.9769C64.4993 67.9597 63.1312 69.8644 61.1001 70.2225L34.6379 74.8885C32.6068 75.2466 30.6698 73.9248 30.3202 71.942L20.382 15.5798C20.0324 13.597 21.4005 11.6923 23.4316 11.3342L49.8938 6.66821C51.9249 6.31007 53.8619 7.6319 54.2115 9.61471L64.1497 65.9769Z" fill="black"/>
<path d="M26.2772 13.4052C24.3289 13.7488 23.0167 15.5756 23.3521 17.4775C23.6875 19.3794 25.5453 20.6473 27.4936 20.3037C29.4419 19.9602 30.7541 18.1334 30.4187 16.2315C30.0833 14.3295 28.2255 13.0617 26.2772 13.4052ZM27.1054 18.1021C26.4007 18.2264 25.7287 17.7678 25.6074 17.0798C25.4861 16.3919 25.9607 15.7312 26.6654 15.6069C27.3701 15.4826 28.0421 15.9412 28.1634 16.6291C28.2847 17.3171 27.8101 17.9778 27.1054 18.1021Z" fill="black"/>
<path d="M39.2889 16.8618C40.491 16.6499 41.3007 15.5226 41.0938 14.3491C40.8869 13.1757 39.7405 12.3933 38.5384 12.6053C37.3363 12.8173 36.5266 13.9445 36.7335 15.118C36.9405 16.2915 38.0869 17.0738 39.2889 16.8618Z" fill="black"/>
<path d="M33.0937 16.8948L34.2965 16.6828C34.9193 16.5729 35.3372 15.991 35.2301 15.3831C35.1229 14.7751 34.5311 14.3713 33.9083 14.4811L32.7055 14.6932C32.0827 14.803 31.6647 15.3849 31.7719 15.9929C31.8791 16.6008 32.4709 17.0047 33.0937 16.8948Z" fill="black"/>
<path d="M41.2436 34.9807C37.9689 35.5581 35.7632 38.6287 36.3269 41.8255C36.8906 45.0223 40.0135 47.1534 43.2882 46.576C46.5629 45.9986 48.7685 42.9279 48.2048 39.7311C47.6411 36.5343 44.5183 34.4032 41.2436 34.9807ZM42.8999 44.3744C40.8688 44.7325 38.9318 43.4107 38.5822 41.4279C38.2326 39.4451 39.6007 37.5405 41.6318 37.1823C43.6629 36.8242 45.5999 38.146 45.9495 40.1288C46.2991 42.1116 44.9311 44.0162 42.8999 44.3744Z" fill="black"/>
</g>
<defs>
<clipPath id="clip0_31_25">
<rect width="70.6875" height="69.0059" fill="white" transform="translate(0.866272 13.043) rotate(-10)"/>
</clipPath>
</defs>
</svg>
