<svg width="64" height="57" viewBox="0 0 64 57" fill="none" xmlns="http://www.w3.org/2000/svg">
<path d="M41.8725 14.0051C39.3914 11.6813 35.8855 10.2327 32 10.2327C28.1129 10.2327 24.6069 11.6827 22.1242 14.0065C23.2529 10.0868 27.2453 7.18958 32 7.18958C36.7514 7.18958 40.7455 10.0868 41.8725 14.0051Z" fill="#655A5A"/>
<path d="M42.192 16.2668C42.192 21.2814 37.6287 27.7344 32 27.7344C26.3696 27.7344 21.8063 21.2814 21.8063 16.2668C21.8063 15.4869 21.9166 14.7287 22.1242 14.0066C24.6069 11.6827 28.1129 10.2327 32 10.2327C35.8854 10.2327 39.3914 11.6813 41.8725 14.0051C42.0817 14.7287 42.192 15.4855 42.192 16.2668Z" fill="#FFDED7"/>
<path d="M48.7353 40.3631V40.3646C44.2353 43.7947 38.3893 45.8673 32 45.8673C28.8767 45.8673 25.8815 45.3719 23.1118 44.4634C20.2139 43.516 17.5625 42.1165 15.2614 40.3617C15.2744 40.236 15.289 40.1118 15.3052 39.9862C15.3198 39.8764 15.3344 39.7666 15.3522 39.6583C15.3571 39.628 15.362 39.5991 15.3668 39.5688C15.383 39.4605 15.4025 39.3521 15.4236 39.2453C15.4333 39.1904 15.4447 39.1341 15.456 39.0777C15.4657 39.0228 15.4787 38.968 15.4901 38.9116C15.503 38.8524 15.516 38.7918 15.5306 38.7311C15.5436 38.6704 15.5582 38.6112 15.5728 38.552C15.5874 38.4928 15.602 38.4336 15.6182 38.3744C15.6247 38.3484 15.6311 38.3224 15.6376 38.2978C15.6441 38.2718 15.6506 38.2458 15.6587 38.2198C15.6798 38.1404 15.7009 38.061 15.7252 37.9815C15.7252 37.9757 15.7268 37.97 15.7301 37.9656C18.2842 39.823 21.2453 41.2514 24.4756 42.128C26.8545 42.7751 29.3827 43.1231 32 43.1231C38.1703 43.1231 43.8347 41.1907 48.2683 37.9671C48.2732 37.9844 48.278 38.0017 48.2829 38.0205C48.2845 38.0263 48.2861 38.0306 48.2878 38.0364C48.3088 38.1086 48.3283 38.1794 48.3478 38.2516V38.253C48.3494 38.2588 48.351 38.266 48.3526 38.2733C48.3559 38.2834 48.3591 38.2949 48.3607 38.305C48.3834 38.3874 48.4045 38.4711 48.424 38.5535C48.4418 38.6271 48.4596 38.7008 48.4759 38.7759C48.4905 38.8351 48.5034 38.8929 48.5148 38.9521C48.5359 39.046 48.5537 39.1398 48.5715 39.2352C48.5732 39.2453 48.5764 39.2568 48.5764 39.2684C48.5942 39.3594 48.6105 39.4504 48.6251 39.5428C48.6332 39.5861 48.6396 39.6294 48.6461 39.6742C48.664 39.7782 48.6786 39.8822 48.6915 39.9876C48.7078 40.1118 48.7224 40.2375 48.7353 40.3631Z" fill="white"/>
<path d="M48.2683 37.9671C43.8347 41.1907 38.1703 43.1231 32 43.1231C25.828 43.1231 20.1652 41.1907 15.73 37.9656C16.6106 34.9399 18.529 32.2853 21.1252 30.3211C22.935 28.9519 25.5231 28.8378 27.5534 29.934C28.9253 30.6749 30.427 31.1096 32 31.1096C33.573 31.1096 35.073 30.6749 36.4449 29.934C38.4703 28.8421 41.0536 28.9476 42.8601 30.311C45.4628 32.2766 47.3861 34.9341 48.2683 37.9671Z" fill="#8272E4"/>
<path d="M46.6953 4.09885C42.5277 1.51504 37.4633 0 32 0C27.8502 0 23.9291 0.873786 20.4588 2.42638C12.0327 6.19593 6.24994 13.9632 6.24994 22.9336C6.24994 24.0703 6.34237 25.1881 6.52237 26.28C7.44347 31.891 10.6446 36.842 15.2614 40.3617C15.2744 40.236 15.289 40.1118 15.3052 39.9862C15.3198 39.8764 15.3344 39.7666 15.3522 39.6583C15.3571 39.628 15.3619 39.5991 15.3668 39.5688C15.383 39.4605 15.4025 39.3521 15.4236 39.2453C15.4333 39.1904 15.4446 39.134 15.456 39.0777C15.4657 39.0228 15.4787 38.968 15.49 38.9116C15.503 38.8524 15.516 38.7918 15.5306 38.7311C15.5436 38.6704 15.5582 38.6112 15.5728 38.552C15.5873 38.4928 15.6019 38.4336 15.6182 38.3744C15.6246 38.3484 15.6311 38.3224 15.6376 38.2978C15.6441 38.2718 15.6506 38.2458 15.6587 38.2198C15.6798 38.1404 15.7009 38.061 15.7252 37.9815C15.7252 37.9757 15.7268 37.97 15.7301 37.9656C15.7301 37.9613 15.7317 37.957 15.7333 37.9541C15.7576 37.8674 15.7836 37.7808 15.8111 37.6955C15.8711 37.5035 15.936 37.3143 16.0041 37.1251C16.0236 37.0731 16.0414 37.0211 16.0625 36.9691C16.0901 36.8954 16.1176 36.8232 16.1468 36.751C16.1841 36.6542 16.223 36.5589 16.2636 36.465C16.3738 36.2022 16.4938 35.9422 16.622 35.6866C16.6593 35.6071 16.6998 35.5277 16.742 35.4497C16.7436 35.4454 16.7452 35.4425 16.7484 35.4381C16.7744 35.3862 16.802 35.3342 16.8295 35.2836C16.8376 35.2706 16.8441 35.2562 16.8522 35.2432C16.896 35.158 16.943 35.0727 16.9917 34.989C17.089 34.8186 17.1879 34.6496 17.2933 34.4835C17.3436 34.3997 17.3971 34.3159 17.4522 34.2336C17.5041 34.1513 17.5593 34.069 17.616 33.9881C17.6695 33.9072 17.7263 33.8263 17.7847 33.7455C17.8982 33.5837 18.0149 33.4248 18.1382 33.2688C18.1771 33.2154 18.2176 33.1634 18.2614 33.1114C18.2614 33.1114 18.2614 33.11 18.2631 33.11C18.3166 33.0392 18.3733 32.9713 18.4317 32.9006C18.4739 32.8471 18.5193 32.7922 18.5663 32.7402C18.5744 32.7316 18.5809 32.7215 18.589 32.7128C18.6263 32.6666 18.6636 32.6233 18.7041 32.5785C18.8339 32.4283 18.9668 32.281 19.1047 32.1351C19.1679 32.0658 19.2344 31.9964 19.3025 31.9286C19.3074 31.9228 19.3123 31.917 19.3187 31.9112C19.3723 31.8563 19.4258 31.8015 19.4809 31.748C19.5928 31.6354 19.7063 31.5256 19.8231 31.4187C19.8669 31.3754 19.9139 31.3335 19.9593 31.2916C20.0712 31.1891 20.1831 31.0894 20.2982 30.9912C20.3031 30.9855 20.3063 30.9826 20.3112 30.9797C20.4069 30.8959 20.5042 30.8136 20.6031 30.7341C20.6209 30.7183 20.6404 30.7024 20.6582 30.6879C20.7312 30.6287 20.8058 30.5695 20.8804 30.5103C20.9615 30.4467 21.0425 30.3832 21.1252 30.3211C22.935 28.9519 25.5231 28.8378 27.5534 29.934C27.6588 29.9918 27.7659 30.0467 27.8745 30.1001C27.9345 30.1304 27.9945 30.1593 28.0545 30.1868C28.2248 30.2691 28.3983 30.3456 28.5734 30.4164C28.6091 30.4323 28.6464 30.4467 28.6837 30.4612C28.747 30.4872 28.8118 30.5117 28.8751 30.5348C28.9545 30.5637 29.034 30.5926 29.1135 30.62C29.3226 30.6908 29.5351 30.7558 29.7491 30.8121C29.8254 30.8324 29.9032 30.8526 29.981 30.8699C30.0637 30.8901 30.1464 30.9089 30.2308 30.9262C30.3248 30.945 30.4173 30.9623 30.5113 30.9797C30.5827 30.9927 30.654 31.0042 30.7254 31.0143H30.7302C30.8 31.0244 30.8681 31.0346 30.9378 31.0432C30.9427 31.0432 30.9459 31.0447 30.9508 31.0447H30.9524C30.9605 31.0461 30.9702 31.0461 30.9783 31.0476C31.0416 31.0562 31.1064 31.062 31.1697 31.0692C31.2362 31.0764 31.3027 31.0822 31.3692 31.0851C31.3886 31.088 31.4065 31.0894 31.4259 31.0909C31.4778 31.0938 31.5281 31.0967 31.58 31.0981C31.6319 31.1024 31.6838 31.1039 31.7356 31.1053C31.8232 31.1082 31.9124 31.1097 32 31.1097C33.573 31.1097 35.073 30.6749 36.4449 29.934C38.4703 28.8421 41.0536 28.9476 42.8601 30.311C42.9428 30.3731 43.0255 30.4366 43.1066 30.5002C43.1682 30.5493 43.2282 30.5969 43.2882 30.646C43.4471 30.7746 43.6044 30.906 43.7585 31.0403C43.8509 31.1198 43.9401 31.2006 44.0293 31.2815C44.1282 31.3711 44.2239 31.4621 44.3212 31.5545C44.4071 31.6368 44.4931 31.7206 44.5758 31.8058C44.6326 31.8636 44.6893 31.9199 44.7444 31.9777C44.7931 32.0268 44.8401 32.0759 44.8872 32.1264C44.9926 32.2376 45.0947 32.3517 45.1953 32.4658C45.2926 32.5756 45.3882 32.6854 45.4823 32.798C45.4855 32.8023 45.4888 32.8081 45.4936 32.8125C45.4985 32.8182 45.5034 32.8226 45.5066 32.8283C45.5634 32.8933 45.6185 32.9612 45.6704 33.0277C45.7337 33.1042 45.7953 33.1822 45.8553 33.2616C45.9169 33.3396 45.9769 33.4191 46.0353 33.4985C46.0888 33.5707 46.1423 33.6429 46.1942 33.7166C46.2007 33.7267 46.2072 33.7368 46.2153 33.7469C46.251 33.796 46.285 33.8437 46.3174 33.8942C46.3661 33.9621 46.4131 34.0314 46.4585 34.1022C46.4683 34.1152 46.478 34.1296 46.4861 34.1426C46.5299 34.2062 46.572 34.2712 46.611 34.3362C46.6434 34.3824 46.6726 34.43 46.7018 34.4777C46.7747 34.5947 46.8461 34.7131 46.9158 34.833C46.9385 34.872 46.9629 34.9124 46.9856 34.9529C47.0099 34.9933 47.0326 35.0338 47.0537 35.0742C47.0553 35.0771 47.0569 35.0785 47.0585 35.0814C47.0602 35.0843 47.0618 35.0872 47.0634 35.0901C47.1056 35.1666 47.1477 35.2432 47.1883 35.3212C47.2142 35.3674 47.2385 35.4136 47.2612 35.4598C47.3147 35.5624 47.3666 35.6649 47.4169 35.7674C47.4656 35.8657 47.5126 35.9653 47.558 36.0664C47.605 36.1661 47.6504 36.2672 47.6942 36.3697C47.7056 36.3971 47.7169 36.4246 47.7283 36.4535C47.7575 36.5228 47.7866 36.5907 47.8142 36.66C47.8175 36.6658 47.8191 36.673 47.8223 36.6788C47.8402 36.7221 47.858 36.7669 47.8742 36.8117C47.9148 36.9142 47.9537 37.0182 47.9926 37.1236C48.0315 37.229 48.0688 37.3359 48.1045 37.4428C48.1337 37.5323 48.1629 37.6204 48.1904 37.7114C48.2115 37.7779 48.2326 37.8443 48.2521 37.9122C48.2585 37.9295 48.2634 37.9483 48.2683 37.9671C48.2731 37.9844 48.278 38.0017 48.2829 38.0205C48.2845 38.0263 48.2861 38.0306 48.2877 38.0364C48.3088 38.1072 48.3299 38.1794 48.3477 38.2516V38.253C48.3494 38.2588 48.351 38.266 48.3526 38.2733C48.3558 38.2834 48.3591 38.2949 48.3607 38.305C48.3834 38.3874 48.4045 38.4697 48.424 38.5534C48.4418 38.6271 48.4596 38.7008 48.4758 38.7759C48.4904 38.8351 48.5034 38.8929 48.5148 38.9521C48.5358 39.0459 48.5537 39.1398 48.5715 39.2351C48.5731 39.2453 48.5764 39.2568 48.5764 39.2684C48.5942 39.3594 48.6104 39.4503 48.625 39.5428C48.6331 39.5861 48.6396 39.6294 48.6461 39.6742C48.664 39.7782 48.6785 39.8822 48.6915 39.9876C48.7077 40.1118 48.7223 40.2375 48.7353 40.3631C54.2537 36.1574 57.75 29.9095 57.75 22.9336C57.75 15.1331 53.3764 8.24103 46.6953 4.09885ZM32.9211 27.6752H32.9194C32.6162 27.7142 32.3097 27.7344 32 27.7344C26.3696 27.7344 21.8063 21.2814 21.8063 16.2669C21.8063 11.2538 26.3696 7.1896 32 7.1896C36.3281 7.1896 40.0271 9.59287 41.5044 12.9826C41.9487 14.0008 42.192 15.1085 42.192 16.2669C42.192 21.0055 38.1184 27.0267 32.9211 27.6752Z" fill="#BCBCC2"/>
<path d="M49.712 49.8091H14.2869V51.9755H49.712V49.8091Z" fill="black"/>
<path d="M49.712 54.8336H14.2869V57H49.712V54.8336Z" fill="black"/>
<path opacity="0.23" d="M20.4588 2.42639L18.6604 5.50414L16.742 8.78842L12.5322 15.9925L10.523 19.4327L6.64075 26.0764L6.52237 26.28C6.34237 25.1881 6.24994 24.0703 6.24994 22.9336C6.24994 13.9632 12.0327 6.19595 20.4588 2.42639Z" fill="#F2F2F2"/>
<path opacity="0.23" d="M57.75 22.9337C57.75 29.9095 54.2537 36.1574 48.7353 40.3631V40.3646C44.2352 43.7947 38.3892 45.8673 32 45.8673C28.8767 45.8673 25.8815 45.3719 23.1118 44.4634L24.4756 42.1281L30.9508 31.0447H30.9524L32.9194 27.6752H32.9211L41.5044 12.9826L46.6953 4.09888C53.3764 8.24105 57.75 15.1331 57.75 22.9337Z" fill="#F2F2F2"/>
</svg>
