<svg width="60" height="60" viewBox="0 0 60 60" fill="none" xmlns="http://www.w3.org/2000/svg">
<g clip-path="url(#clip0_51_24)">
<path d="M54.761 31.724L51.911 28.873C50.748 27.711 48.854 27.712 47.69 28.874L32.299 44.265L30.177 52.044L29.658 52.563C29.27 52.951 29.269 53.577 29.652 53.968L29.647 53.988L29.666 53.983C29.86 54.173 30.112 54.271 30.365 54.271C30.621 54.271 30.877 54.173 31.072 53.978L31.592 53.458L39.37 51.337L54.761 35.946C55.925 34.781 55.925 32.888 54.761 31.724ZM34.609 44.784L44.851 34.542L49.094 38.784L38.851 49.027L34.609 44.784ZM33.706 46.71L36.926 49.93L32.498 51.138L33.706 46.71ZM53.347 34.531L50.508 37.37L46.265 33.128L49.104 30.289C49.489 29.904 50.114 29.905 50.498 30.288L53.347 33.138C53.731 33.521 53.731 34.147 53.347 34.531Z" fill="#8272E4"/>
<path d="M17.366 53C17.366 55.206 19.16 57 21.366 57C23.572 57 25.366 55.206 25.366 53C25.366 50.794 23.572 49 21.366 49C19.16 49 17.366 50.794 17.366 53ZM23.366 53C23.366 54.103 22.469 55 21.366 55C20.263 55 19.366 54.103 19.366 53C19.366 51.897 20.263 51 21.366 51C22.469 51 23.366 51.897 23.366 53Z" fill="#8272E4"/>
<path d="M33.961 58H8.77103C7.44503 58 6.36603 56.921 6.36603 55.595V48H27.366C27.918 48 28.366 47.553 28.366 47C28.366 46.447 27.918 46 27.366 46H6.36603V8H36.366V30C36.366 30.553 36.814 31 37.366 31C37.918 31 38.366 30.553 38.366 30V4.405C38.366 1.977 36.39 0 33.961 0H8.77103C6.34203 0 4.36603 1.977 4.36603 4.405V55.594C4.36603 58.023 6.34203 60 8.77103 60H33.96C34.512 60 34.96 59.553 34.96 59C34.96 58.447 34.513 58 33.961 58ZM8.77103 2H33.96C35.286 2 36.365 3.079 36.365 4.405V6H6.36503V4.405C6.36603 3.079 7.44503 2 8.77103 2Z" fill="#8272E4"/>
<path d="M17.366 5H21.366C21.918 5 22.366 4.553 22.366 4C22.366 3.447 21.918 3 21.366 3H17.366C16.814 3 16.366 3.447 16.366 4C16.366 4.553 16.814 5 17.366 5Z" fill="#8272E4"/>
<path d="M24.366 5H25.366C25.918 5 26.366 4.553 26.366 4C26.366 3.447 25.918 3 25.366 3H24.366C23.814 3 23.366 3.447 23.366 4C23.366 4.553 23.814 5 24.366 5Z" fill="#8272E4"/>
<path d="M44.1256 32.6763C43.8942 33.3127 43.0239 33.8357 42.5151 34.2718C42.342 34.4203 41.042 35.332 42.0678 34.913C43.9507 34.1439 45.9075 32.816 47.5552 31.6176C47.8511 31.4024 49.0184 30.5439 47.9131 30.9764C46.3579 31.585 45.1229 32.5996 43.723 33.4517C43.591 33.532 42.2384 34.442 42.3064 34.4359C43.319 34.3438 44.3442 32.8652 45.2887 32.4675C46.4294 31.9872 45.3395 32.2962 44.901 32.6167C43.4712 33.6615 41.9249 35.578 41.1731 37.1796C40.7787 38.02 41.1448 38.2014 42.0082 37.8506C42.2165 37.766 43.9652 36.5505 43.7379 36.4937C42.476 36.1782 40.4354 37.0834 39.4285 37.791C39.075 38.0393 37.724 38.7534 37.8031 39.3865C37.8735 39.95 39.028 38.8631 39.1302 38.7155C39.2268 38.576 39.4662 37.5911 39.0258 37.8357C38.3796 38.1947 38.1376 39.2037 38.0119 39.8637C37.6692 41.6624 38.1564 38.3776 36.4014 39.5058C35.9489 39.7967 35.7427 40.6298 35.8199 41.1311C35.9521 41.9903 36.4546 41.8007 36.0435 41.1759C35.0922 39.7298 32.6439 44.4304 33.9261 45.2318C34.7848 45.7685 33.0976 42.0593 32.6139 43.9942C32.4027 44.8387 33.6757 46.2269 33.3744 45.1722C33.2807 44.8443 33.1336 46.1954 33.1805 46.4247C33.285 46.9356 33.9032 47.3171 33.9261 47.7071C33.9634 48.3412 33.3893 48.6524 33.3893 49.3772C33.3893 50.4795 32.0213 50.2546 31.1227 50.7938C29.6972 51.6491 30.542 51.9932 31.6446 51.7481C32.9092 51.4671 31.5839 52.2645 31.8087 52.6577C32.171 53.2919 32.6603 53.5802 31.3762 53.8656C31.0398 53.9403 30.6328 53.9594 30.7052 53.3437C30.7365 53.0775 33.0431 52.6545 31.9876 52.3297C31.5663 52.2 29.4964 52.8968 30.4368 52.4788C32.5856 51.5238 32.0213 48.4263 32.9718 46.6931C33.0881 46.481 33.7871 45.549 33.2551 45.3362C32.9891 45.2298 32.5084 46.9753 32.435 47.1852C31.833 48.9051 32.0473 47.5238 32.0473 48.3931C32.0473 48.6217 31.8755 49.7168 32.2262 49.7947C33.4059 50.0569 34.9305 47.6171 35.4471 46.8423C35.5226 46.729 35.9238 45.4544 36.0137 45.6792C36.3545 46.5312 35.9678 47.6984 36.0883 48.6018C36.1231 48.8631 36.5358 48.2773 36.64 48.0352C38.0214 44.8268 38.7686 41.3095 39.5627 37.9252C40.2079 35.1749 40.5462 32.2149 41.3819 29.5151C41.953 27.6698 41.2164 33.3759 41.0538 35.3007C40.7337 39.0899 40.2842 42.8553 39.7416 46.6186C39.473 48.4817 39.0258 50.4305 39.0258 52.3297C39.0258 52.4291 38.9864 52.7192 39.0258 52.6279C40.4002 49.4453 42.0552 46.3687 43.6484 43.2933C44.8681 40.9388 46.1008 38.597 47.4509 36.3147C47.8036 35.7184 48.0251 35.3558 48.1666 34.7192C48.2292 34.4374 48.6562 36.7204 48.6736 37.0603C48.6831 37.2459 48.5428 39.2941 49.1359 38.3129C50.3219 36.3506 51.1224 34.0208 52.0138 31.9307C52.2331 31.4166 53.708 27.9689 54.0716 27.0397C54.1787 26.766 54.3479 26.4986 54.3549 26.2047C54.3576 26.0914 54.1558 26.3238 54.0865 26.4135C52.5706 28.3752 51.4868 30.826 50.3586 33.0044C48.2908 36.9967 46.2578 40.9937 44.0361 44.9038C43.6955 45.5032 42.8065 47.3672 43.052 46.723C44.1952 43.7218 45.6652 40.8322 46.9588 37.8953C47.7647 36.0657 48.5495 34.2281 49.2701 32.3632C49.4586 31.8751 49.6971 31.3325 49.0613 32.3781C46.1538 37.1592 43.8122 42.4212 40.6959 47.051C39.8494 48.3087 40.8568 45.2967 40.1591 47.1107C39.6561 48.4185 39.4701 45.4798 38.3399 45.8879C37.6472 46.1381 36.8786 47.4955 36.8786 48.2141C36.8786 49.4872 37.3411 45.6227 36.9979 44.3968C36.5067 42.6425 34.678 46.6483 35.0146 47.8264C35.1585 48.33 35.8012 46.0551 35.805 45.7984C35.8074 45.632 35.4971 43.7837 35.1339 44.5906C34.4578 46.0931 35.109 48.1221 35.7453 49.5263C36.4749 51.1364 36.8814 49.6109 37.0128 48.6913C37.0773 48.2399 37.2978 46.8681 36.7593 48.1246C36.3204 49.1487 36.0014 50.2386 35.8646 51.3455C35.8273 51.647 35.9502 52.474 35.7453 52.7472C35.5563 52.9992 34.0115 52.8069 33.7173 52.8069C33.3992 52.8069 33.0811 52.8069 32.763 52.8069C31.7314 52.8069 34.6099 51.8852 35.5067 51.3754C41.3785 48.0374 47.0336 44.3018 52.3269 40.1022C55.1867 37.8334 57.5705 35.1666 59.8423 32.4079C61.1161 30.8612 56.7131 34.9311 55.3391 36.3893C52.7469 39.1402 50.1529 41.8962 47.8386 44.8888C46.1165 47.1157 47.5246 44.2677 47.8833 43.4872C50.1821 38.4839 52.5991 32.9155 55.8162 28.4116C55.8286 28.3943 56.1741 28.0772 56.1741 27.9941C56.1741 27.8528 55.9404 28.1573 55.846 28.2625C55.48 28.6704 53.8614 30.5898 53.7733 30.6931C51.9881 32.7848 50.2434 35.1581 48.1517 36.9708C47.7678 37.3036 48.6407 36.0782 48.9271 35.6586C50.1418 33.8789 51.2032 32.049 52.148 30.1115C52.4269 29.5396 52.7017 28.9584 52.9383 28.3669C53.5244 26.9016 52.1093 31.4127 51.7305 32.9447C51.0858 35.552 50.4713 38.1726 50.0007 40.818C49.7455 42.253 49.8391 42.4177 50.5375 41.2057C51.8899 38.8589 52.6262 37.1859 53.6242 35.3007C53.9792 34.6303 53.5135 36.6625 53.3111 36.106C53.2076 35.8214 53.6897 34.9019 53.3409 34.8385C52.4959 34.6848 51.9023 35.3419 51.1638 35.5691C50.639 35.7306 52.134 33.8215 52.2822 33.6605C54.1615 31.6177 52.1975 36.0648 51.0744 35.5542C47.5817 33.9667 50.0243 28.3739 51.5217 26.2942C52.9693 24.2837 50.5596 31.4613 48.8078 33.2131C48.1338 33.8871 49.1624 29.7937 49.6429 30.9764C50.1763 32.2895 48.039 35.8223 47.3912 36.9559C46.6578 38.2393 46.5447 37.1324 46.7798 36.2252C47.0657 35.1225 47.9689 31.0116 49.4937 30.8422C51.135 30.6598 49.6595 33.4189 49.1955 33.8394C45.6018 37.0962 46.3188 32.3361 46.586 29.7089C46.6541 29.0389 47.6765 27.1967 48.5692 28.352C49.7638 29.8979 48.7616 33.8734 48.1666 35.5095C47.0102 38.6897 46.0969 32.8993 47.6149 31.4536C48.1458 30.948 49.1239 31.6132 49.4788 31.9904C50.0841 32.6334 51.1097 32.1812 51.9094 32.0798C53.897 31.8279 56.2039 32.9107 56.2039 35.2262C56.2039 36.3224 56.9746 36.9498 56.189 35.5095C55.945 35.0622 55.456 35.2984 55.1899 35.0323C54.9932 34.8356 55.1303 33.9913 55.1303 33.7499" stroke="white" stroke-width="3" stroke-linecap="round"/>
<g clip-path="url(#clip1_51_24)">
<path d="M52.1309 31.9652C51.8921 31.7621 51.5782 31.6859 51.28 31.7578C51.2712 31.7598 50.3829 31.97 48.9913 31.97C46.1781 31.97 42.0209 31.1587 38.1919 27.2936C37.804 26.9021 37.1961 26.9021 36.8082 27.2936C36.7965 27.3055 36.7846 27.317 36.7728 27.3289C36.7705 27.3311 36.7681 27.3331 36.7658 27.3354C32.9466 31.1657 28.8074 31.9698 26.0076 31.9698C24.8314 31.9698 24.0155 31.8199 23.7875 31.7726C23.5049 31.714 23.2411 31.6994 22.9432 31.9082C22.6472 32.1155 22.49 32.4556 22.49 32.8012C22.49 39.7863 23.8108 47.1758 27.5014 52.9128C27.515 52.9338 27.5285 52.955 27.542 52.9759C29.7588 56.3974 33.5623 60.0001 37.5001 60.0001C40.7186 60.0001 44.4407 57.4501 47.2139 53.3451C49.6301 49.7688 52.5101 43.3016 52.5101 32.8012C52.5101 32.4758 52.3697 32.1684 52.1309 31.9652ZM36.4498 57.7311C34.5014 57.2875 31.8015 55.6375 29.3948 52.0593C27.2567 48.8806 24.7254 43.211 24.5151 34.0378C24.9283 34.0792 25.432 34.1107 26.0076 34.1107C29.7214 34.1105 33.3596 32.8543 36.4498 30.408V57.7311ZM45.5813 52.0951C43.1407 55.7076 40.4115 57.3404 38.4608 57.7511V54.6171C42.2085 53.7426 47.6974 47.9247 47.6974 35.7096C47.6974 35.7096 46.9916 35.8838 45.8673 35.8838C44.0754 35.8838 41.2201 35.44 38.4608 33.1452V30.3365C41.6288 32.8764 45.3115 34.1109 48.9912 34.1109C49.5674 34.1109 50.0715 34.0793 50.4849 34.0378C50.2742 43.2372 47.7301 48.9144 45.5813 52.0951ZM38.4609 52.3956V35.7531C41.2262 37.5888 43.9419 37.9871 45.6144 38.022C45.1253 45.6788 42.1963 50.0943 39.5873 51.8138C39.2055 52.0655 38.8215 52.2624 38.4609 52.3956Z" fill="#8272E4"/>
<path d="M28.6718 47.6387C28.6718 48.3456 28.495 48.6286 29.0894 48.4588C29.6477 48.2993 30.0139 48.3751 30.0139 47.6387" stroke="white" stroke-width="3" stroke-linecap="round"/>
<path d="M28.2477 44.7414C28.3819 44.8756 28.4254 44.9955 28.5054 45.1603C28.5268 45.2043 28.5859 45.36 28.6182 45.3858C28.7675 45.5052 28.6611 45.4708 28.552 45.3679C28.4891 45.3086 28.3113 45.247 28.2799 45.1764C28.2425 45.0922 28.4626 45.3609 28.5126 45.4109C28.7072 45.6055 28.34 45.0658 28.2871 45.0081C28.1447 44.8528 28.0886 44.8723 28.2656 45.0493C28.3042 45.0879 28.6261 45.4275 28.4553 45.3106C28.3648 45.2487 27.8437 44.7655 28.117 45.1388C28.2504 45.321 28.4295 45.4613 28.5663 45.64C28.5701 45.6449 28.6552 45.745 28.6451 45.7259C28.5412 45.5296 28.2982 45.4374 28.1367 45.3053C28.131 45.3006 28.0691 45.2437 28.0866 45.2963C28.1437 45.4676 28.4008 45.6242 28.5377 45.7331C28.6824 45.8482 28.4658 45.7872 28.3945 45.7742C28.2156 45.7417 28.4884 45.9025 28.4911 45.8942C28.5 45.8675 28.2487 45.6755 28.3408 45.7939C28.448 45.9318 28.5572 46.1107 28.6809 46.2343C28.7318 46.2853 28.5144 46.0088 28.577 46.0445C28.6679 46.0964 28.9376 46.4952 28.9279 46.4777C28.7959 46.2402 28.6143 46.0323 28.4804 45.8047C28.3492 45.5817 28.7758 46.2301 28.9386 46.4312C29.0466 46.5646 28.8361 46.3121 28.8277 46.3023C28.8008 46.271 28.5497 45.9741 28.4875 46.0123C28.418 46.0551 28.8408 46.5287 28.8223 46.5565C28.8054 46.5819 28.2723 46.0249 28.1689 45.9658C27.9432 45.8368 28.5316 46.3396 28.731 46.5064C28.8074 46.5703 28.9126 46.691 28.7811 46.5475C28.7544 46.5184 28.7053 46.4896 28.663 46.4956C28.5987 46.5048 28.7674 46.5728 28.8205 46.6102C28.8608 46.6385 28.9681 46.8022 28.9082 46.689C28.9048 46.6825 28.8189 46.5761 28.8169 46.5923C28.8074 46.6683 28.9156 46.7095 28.9655 46.7677C29.0651 46.884 29.1597 47.0042 29.2573 47.1222C29.3019 47.1762 29.6083 47.496 29.379 47.2564C29.2432 47.1146 29.1204 46.9528 28.9709 46.825C28.8238 46.6993 28.9654 46.809 29.0496 46.8715C29.2935 47.0525 29.51 47.2925 29.7871 47.4229C29.841 47.4482 29.8817 47.5031 29.9232 47.5446" stroke="white" stroke-width="3" stroke-linecap="round"/>
<path d="M29.1176 46.7713C29.1666 46.8203 29.2976 46.9513 29.166 46.8197C29.0886 46.7423 29.0159 46.6537 28.9118 46.612C28.8513 46.5878 29.0249 46.6844 29.0603 46.7391C29.0983 46.7978 29.0873 46.7582 29.0245 46.7105C28.9116 46.6245 28.7913 46.4919 28.6486 46.4563C28.5307 46.4268 28.7832 46.6947 28.8115 46.723C28.9055 46.817 28.6502 46.5875 28.5896 46.5673C28.5672 46.5598 28.6491 46.7677 28.7131 46.7677C28.8055 46.7677 28.5986 46.6192 28.5233 46.5655C28.3945 46.4734 28.7321 46.8041 28.8455 46.9145C28.9516 47.0178 28.7136 46.7105 28.6218 46.7105C28.5773 46.7105 28.6748 46.7965 28.6809 46.8053C28.687 46.8142 28.7395 46.9309 28.7453 46.9271C28.7782 46.9051 28.4518 46.5864 28.4088 46.5458C28.3952 46.5329 28.6065 46.8469 28.6988 46.893C28.7432 46.9153 28.4187 46.5771 28.4159 46.5995C28.4016 46.7143 28.6637 46.9452 28.7381 47.0219C28.7505 47.0347 28.8891 47.1962 28.8455 47.1114C28.7806 46.9852 28.5105 46.6532 28.5967 46.766C28.6992 46.8999 28.8192 47.0256 28.9476 47.1347C28.9778 47.1604 28.985 47.2316 28.9816 47.2278C28.946 47.1878 28.6474 46.8834 28.799 47.0577C28.9491 47.2303 29.1001 47.4484 29.2537 47.6019C29.3261 47.6743 29.1118 47.4527 29.055 47.3674C29.024 47.321 29.0444 47.3139 29.0836 47.3531C29.1831 47.4526 29.0858 47.2307 29.0693 47.1759C28.928 46.7065 28.7057 46.2527 28.5377 45.7904C28.5036 45.6967 28.4664 45.6075 28.4285 45.5165C28.3476 45.3225 28.7649 45.7707 28.9136 45.9193C29.0605 46.0662 29.1652 46.2178 29.2608 46.399C29.423 46.7062 29.5929 47.0131 29.7871 47.3012C29.9144 47.49 29.968 47.6756 30.0377 47.8847C30.0519 47.9274 30.1839 48.1921 30.0896 48.0977C29.7794 47.7875 29.4668 47.4788 29.1427 47.183C29.0718 47.1183 28.969 47.0044 28.867 46.9718C28.7988 46.95 29.0251 47.2086 28.9744 47.158C28.9451 47.1286 28.6972 46.9351 28.6988 46.9646C28.7045 47.0738 28.8049 47.2287 28.8921 47.2869" stroke="white" stroke-width="3" stroke-linecap="round"/>
<path d="M28.6021 47.0291C28.6021 47.0635 28.6813 47.1222 28.6469 47.1222C28.6004 47.1222 28.4709 46.9949 28.441 46.9575C28.4164 46.9268 28.2977 46.868 28.3927 46.868C28.4722 46.868 28.4361 46.7984 28.3927 46.7695C28.2872 46.6992 28.232 46.4422 28.1653 46.3381C28.1206 46.2683 28.0774 46.1641 28.0078 46.1144C28.0011 46.1095 27.9142 45.9914 27.8754 45.9407C27.8136 45.8602 27.8933 45.8856 27.8933 45.8047" stroke="white" stroke-width="3" stroke-linecap="round"/>
<path d="M26.3615 46.9335C26.3284 46.713 25.9928 46.1227 26.1021 46.317C26.1041 46.3206 26.1831 46.4094 26.146 46.4094C26.089 46.4094 26.0712 46.2937 26.0607 46.2563C26.0433 46.1937 26.0429 46.1225 26.0062 46.0664C25.9913 46.0436 25.975 45.9816 25.9578 45.9679C25.8984 45.9203 25.9783 46.0259 25.9939 46.0558C26.0397 46.144 26.0727 46.2375 26.1179 46.3258C26.1777 46.4429 26.2525 46.5562 26.2815 46.6864C26.3012 46.7752 26.3419 46.8721 26.3457 46.9616C26.3496 47.0539 26.3875 47.1682 26.4169 47.2563C26.4465 47.345 26.4727 47.4408 26.5163 47.5227C26.5513 47.5885 26.5502 47.671 26.5831 47.7408C26.5979 47.7721 26.5989 47.8007 26.5989 47.8349C26.5989 47.8774 26.6219 47.899 26.6288 47.9387C26.6514 48.0681 26.6958 48.1918 26.7344 48.3186C26.7492 48.3673 26.7775 48.4128 26.8056 48.4549C26.8447 48.5136 26.854 48.5868 26.8839 48.6502C26.9252 48.7377 26.9124 48.8462 26.963 48.9272C27.0507 49.0675 27.0924 49.2414 27.1653 49.3871C27.1909 49.4383 27.1887 49.528 27.2014 49.585C27.2161 49.6513 27.2788 49.7287 27.335 49.7662C27.3582 49.7816 27.4003 49.8361 27.4133 49.862C27.4247 49.8849 27.4261 49.9112 27.4379 49.9341C27.4485 49.9548 27.472 49.9541 27.4819 49.9728C27.5124 50.0304 27.516 50.1346 27.525 50.1962C27.5638 50.4637 27.6452 50.7232 27.707 50.9859" stroke="#8272E4" stroke-linecap="round"/>
<path d="M25.9025 46.0312C25.9086 46.0863 25.9341 46.131 25.9341 46.1895C25.9341 46.2411 25.9496 46.3186 25.9755 46.3645C26.0192 46.4423 26.0654 46.5199 26.1083 46.5975C26.1457 46.6655 26.1634 46.7321 26.2191 46.791C26.2709 46.8459 26.3403 46.9073 26.3774 46.9722C26.3888 46.9921 26.409 46.9731 26.409 47.0047C26.409 47.0357 26.4122 47.0334 26.4319 47.0531C26.4992 47.1204 26.5137 47.2921 26.5392 47.3838C26.5902 47.5674 26.6938 47.7397 26.7819 47.9079C26.8895 48.1134 26.975 48.3267 26.9789 48.5604C26.981 48.6864 27.0146 48.8236 27.0449 48.9448C27.0657 49.0281 27.1425 49.0994 27.1917 49.1664C27.2479 49.2428 27.3013 49.3095 27.3658 49.3792C27.457 49.4777 27.5788 49.6398 27.6279 49.7653C27.7072 49.968 27.7254 50.2138 27.7581 50.4266C27.7926 50.6519 27.8517 50.8708 27.8812 51.0967" stroke="#8272E4" stroke-linecap="round"/>
<path d="M26.409 47.3609C26.4144 47.4152 26.4816 47.4701 26.5075 47.5192C26.5278 47.5578 26.5356 47.5928 26.5356 47.637C26.5356 47.6671 26.5752 47.7203 26.591 47.7487C26.6055 47.7748 26.6118 47.8379 26.6148 47.8675C26.6203 47.9223 26.6565 48.0296 26.6816 48.0768C26.7272 48.1624 26.7791 48.2429 26.8285 48.3265C26.8822 48.4175 26.9222 48.5177 26.9824 48.6044C27.027 48.6687 27.0244 48.7476 27.0659 48.8076C27.1025 48.8603 27.1481 48.9359 27.1671 48.9975C27.183 49.0494 27.2265 49.1003 27.2321 49.1532C27.2479 49.3002 27.3901 49.4183 27.4221 49.5542C27.4524 49.6828 27.5633 49.8153 27.6314 49.9289C27.6972 50.0385 27.7814 50.1235 27.8671 50.2191C27.9928 50.3593 28.0895 50.4272 28.1345 50.6219" stroke="#8272E4" stroke-linecap="round"/>
<path d="M29.575 50.2261C29.4827 50.1338 29.4036 50.0025 29.2918 49.9341C29.2127 49.8857 29.1483 49.8207 29.0772 49.7591C28.9283 49.63 29.1316 49.8144 29.1793 49.862C29.2532 49.9359 29.2573 50.0903 29.3376 50.1505C29.3597 50.1671 29.3512 50.1931 29.3569 50.2173C29.3763 50.299 29.4062 50.3706 29.4396 50.4468C29.4787 50.5364 29.3605 50.4247 29.3376 50.4081C29.2643 50.3553 29.1934 50.314 29.1318 50.249C29.1048 50.2205 29.0981 50.1886 29.0772 50.1557C29.0561 50.1225 29.011 50.0938 29.0051 50.0555C28.9917 49.968 28.8245 49.9259 28.7633 49.9042C28.6863 49.8769 28.6951 49.891 28.7483 49.9341C28.7984 49.9747 28.8389 50.0282 28.8846 50.0739C28.9432 50.1325 29.027 50.23 29.0561 50.3088C29.0852 50.3873 29.1004 50.4299 29.1599 50.4917C29.1992 50.5325 29.277 50.6399 29.188 50.5348C29.1413 50.4795 29.0979 50.393 29.0676 50.3272C28.9882 50.1552 28.8881 49.996 28.7835 49.8391C28.6911 49.7005 28.6484 49.54 28.5619 49.3994C28.5161 49.325 28.4886 49.2232 28.459 49.1409C28.4363 49.0777 28.3965 49.0228 28.3754 48.9597C28.3524 48.8905 28.289 48.8485 28.262 48.7856C28.214 48.6736 28.1394 48.5578 28.0553 48.469C27.9428 48.35 27.8993 48.208 27.8372 48.0609C27.7714 47.9048 27.6557 47.7542 27.613 47.5904C27.5992 47.5376 27.5745 47.4911 27.5558 47.44C27.5317 47.3741 27.5031 47.3059 27.4758 47.2422C27.4182 47.1079 27.3204 46.986 27.2797 46.8455C27.2381 46.7021 27.2013 46.5526 27.1495 46.4111C27.0746 46.2065 26.9979 46.0011 26.9077 45.8025C26.8787 45.7389 26.8523 45.652 26.8523 45.5809C26.8523 45.4883 26.8411 45.497 26.8874 45.5765C26.9832 45.7407 27.0787 45.9061 27.1689 46.0734C27.286 46.2906 27.3934 46.513 27.5101 46.7303C27.5948 46.8881 27.6413 47.063 27.7211 47.2237C27.8825 47.5487 28.0528 47.8615 28.2682 48.155C28.7015 48.7457 29.1551 49.3404 29.7016 49.8303" stroke="white" stroke-linecap="round"/>
<path d="M29.2425 50.8435C29.1713 50.8364 29.0975 50.7192 29.0561 50.6693C29.0148 50.6196 28.9552 50.5678 28.9409 50.5031C28.9352 50.4777 28.9012 50.4497 28.8908 50.4196C28.8664 50.3491 28.8458 50.2953 28.7984 50.2331C28.731 50.1446 28.6449 50.0685 28.5742 49.9816C28.4912 49.8798 28.4199 49.7639 28.3578 49.6483C28.2654 49.476 28.2457 49.2753 28.1221 49.118C28.0293 48.9999 27.9411 48.8836 27.8715 48.7495C27.6687 48.359 27.576 47.9222 27.3816 47.528C27.2942 47.3507 27.2211 47.1617 27.1618 46.9731C27.1268 46.8619 27.1282 46.7226 27.0738 46.6204C26.9671 46.4199 26.9018 46.1961 26.8452 45.9802C26.7904 45.7713 26.6811 45.5492 26.7731 45.3347" stroke="white" stroke-linecap="round"/>
<path d="M25.1426 45.208C25.3026 45.2696 25.3588 45.47 25.4672 45.5783C25.5645 45.6756 25.5837 45.805 25.7195 45.8729C25.8331 45.9296 25.9658 45.9775 25.9658 46.135C25.9658 46.2365 26.0167 46.3335 26.0291 46.4357C26.0573 46.6683 26.1828 46.876 26.2226 47.1041C26.2499 47.2605 26.353 47.3903 26.3809 47.5473C26.4128 47.7273 26.5215 47.8627 26.5902 48.0275C26.6791 48.2409 26.7443 48.4766 26.8083 48.6976C26.8465 48.8297 26.9356 48.9371 26.9719 49.0705C27.01 49.2109 27.1067 49.3248 27.1451 49.4698C27.199 49.6735 27.2175 49.8897 27.2647 50.0959C27.3198 50.3364 27.3659 50.5788 27.4142 50.8206C27.4441 50.97 27.4629 51.1222 27.4951 51.2709C27.5204 51.3876 27.5908 51.4973 27.6438 51.6033" stroke="#8272E4" stroke-linecap="round"/>
<path d="M25.6967 45.9046C25.7343 45.9093 25.7737 46.0116 25.7758 46.047C25.7791 46.1025 25.8075 45.9802 25.8075 45.9626C25.8075 45.9221 25.8075 45.8817 25.8075 45.8412C25.8075 45.8122 25.8075 45.7832 25.8075 45.7542C25.8075 45.7107 25.8348 45.7014 25.8391 45.6671C25.8445 45.6241 25.8391 45.7539 25.8391 45.7973C25.8391 45.8579 25.892 45.9439 25.9183 45.9995C25.9517 46.0704 25.9603 46.127 25.9746 46.2044C25.9906 46.2913 26.0274 46.3599 26.0291 46.4498C26.0311 46.5592 26.0781 46.7139 26.1241 46.8139C26.1801 46.9358 26.1814 47.079 26.2349 47.2026C26.2585 47.2573 26.2721 47.3259 26.2824 47.3846C26.2958 47.4618 26.3518 47.5375 26.3861 47.6071C26.482 47.8017 26.6149 47.976 26.7221 48.1647C26.8118 48.3227 26.9074 48.4779 26.9921 48.6387C27.0333 48.7171 27.033 48.791 27.058 48.8735C27.1004 49.0132 27.1223 49.1692 27.1847 49.3009C27.2543 49.4479 27.3809 49.5863 27.4819 49.7125C27.5854 49.8418 27.6534 49.992 27.7194 50.1434C27.7985 50.3251 27.9183 50.4832 28.0236 50.65C28.1172 50.7982 28.197 50.9355 28.2708 51.095C28.4252 51.4288 28.5174 51.7953 28.641 52.1415" stroke="#8272E4" stroke-linecap="round"/>
<path d="M28.2611 46.2686C28.2853 46.438 28.3872 46.5988 28.4352 46.7629C28.4775 46.9074 28.5844 47.0384 28.641 47.1797C28.6829 47.2846 28.7166 47.3924 28.7509 47.4999C28.7711 47.5631 28.846 47.7006 28.8081 47.7725C28.7857 47.8149 28.7038 47.8102 28.6647 47.8015C28.571 47.7807 28.4933 47.6307 28.4299 47.5685C28.3448 47.4848 28.2362 47.427 28.1432 47.3521C27.9329 47.1826 27.7115 46.9951 27.5593 46.769C27.2999 46.384 27.1043 45.9513 27.0448 45.4877C27.009 45.2087 27.0012 44.753 26.6816 44.6347C26.6321 44.6163 26.5989 44.5321 26.5989 44.6294C26.5989 44.7034 26.6059 44.7393 26.6368 44.8044C26.6569 44.8469 26.7065 44.9318 26.7097 44.9741C26.7139 45.0283 26.7413 45.0619 26.7537 45.1043C26.8032 45.2724 26.865 45.42 26.9331 45.5827C27.033 45.8214 27.1397 46.0537 27.2093 46.3056C27.2666 46.5134 27.353 46.6864 27.4485 46.8772C27.5928 47.1658 27.7338 47.4469 27.9075 47.718C28.0054 47.8705 28.1163 48.0147 28.1819 48.1858C28.3506 48.6259 28.4732 49.0665 28.5812 49.5226C28.6045 49.6212 28.6279 49.7185 28.6375 49.8198C28.6408 49.8548 28.6369 49.9982 28.5759 49.9289C28.5569 49.9072 28.4779 49.7849 28.4545 49.862C28.4424 49.9021 28.451 49.9547 28.451 49.9957C28.451 50.1418 28.4369 49.9216 28.4317 49.8831C28.4073 49.7035 28.3519 49.5258 28.3209 49.3467C28.3014 49.2342 28.214 49.1416 28.167 49.0397C28.1166 48.9305 28.0734 48.8182 28.0245 48.7082C27.8982 48.4241 27.7609 48.1348 27.6719 47.8358C27.6395 47.7271 27.6005 47.6246 27.5593 47.5192C27.517 47.4111 27.5127 47.2996 27.4538 47.1964C27.3561 47.0255 27.3097 46.8536 27.2638 46.6635C27.2438 46.5807 27.2331 46.4929 27.2005 46.4138C27.1908 46.3901 27.1546 46.2972 27.1758 46.3812C27.2268 46.5826 27.3707 46.7547 27.5118 46.901C27.5884 46.9804 27.667 47.0689 27.7703 47.1076" stroke="white" stroke-linecap="round"/>
<path d="M27.4379 50.3844C27.4379 50.268 27.3588 50.1688 27.3588 50.0511C27.3588 50.0018 27.3518 49.9214 27.3262 49.8787C27.3198 49.868 27.2702 49.753 27.2875 49.753C27.3365 49.753 27.4959 49.8816 27.5391 49.9104C27.5928 49.9462 27.6126 49.9917 27.6279 50.0528C27.655 50.1613 27.7585 50.364 27.8688 50.4125C27.92 50.435 27.9781 50.5152 28.0166 50.5585C28.0479 50.5937 28.0494 50.6402 28.1028 50.6535" stroke="#8272E4" stroke-linecap="round"/>
<path d="M28.1028 50.6535C28.0639 50.6405 28.0677 50.5759 28.0483 50.5462C28.0248 50.5104 27.9956 50.4738 27.9691 50.4398C27.9456 50.4095 27.9198 50.3568 27.8689 50.3527C27.7876 50.3462 27.7646 50.2138 27.7308 50.1575C27.6887 50.0873 27.6324 50.0209 27.5998 49.9447C27.5601 49.8521 27.5128 49.7768 27.4538 49.6967C27.4005 49.6244 27.3803 49.5166 27.3148 49.4663C27.2426 49.4107 27.2342 49.2898 27.1785 49.2218C27.1201 49.1504 27.1275 49.0367 27.0651 48.9667C27.0055 48.8999 26.9409 48.8128 26.8918 48.7372C26.8161 48.6208 26.7676 48.4882 26.6904 48.374C26.61 48.255 26.6143 48.0855 26.5515 47.9554C26.5016 47.8521 26.4755 47.7402 26.416 47.6423C26.3809 47.5844 26.3605 47.5036 26.3378 47.44C26.294 47.3173 26.439 47.5748 26.4688 47.6142C26.7087 47.9312 26.7596 48.3675 26.8522 48.7381" stroke="#8272E4" stroke-linecap="round"/>
</g>
</g>
<defs>
<clipPath id="clip0_51_24">
<rect width="60" height="60" fill="white"/>
</clipPath>
<clipPath id="clip1_51_24">
<rect width="31" height="33" fill="white" transform="translate(22 27)"/>
</clipPath>
</defs>
</svg>
